<?xml version="1.0" standalone="no"?>
<!DOCTYPE svg PUBLIC "-//W3C//DTD SVG 20010904//EN"
 "http://www.w3.org/TR/2001/REC-SVG-20010904/DTD/svg10.dtd">
<svg version="1.0" xmlns="http://www.w3.org/2000/svg"
 width="512.000000pt" height="512.000000pt" viewBox="0 0 512.000000 512.000000"
 preserveAspectRatio="xMidYMid meet">

<g transform="translate(0.000000,512.000000) scale(0.100000,-0.100000)"
fill="#2770E1" stroke="none">
<path d="M2508 5026 c-35 -26 -38 -61 -38 -512 l0 -444 -195 0 -195 0 0 395 0
396 -25 24 c-33 33 -70 32 -106 -4 l-29 -29 0 -391 0 -391 -175 0 -175 0 0
324 c0 178 -3 332 -6 341 -7 18 -55 45 -79 45 -9 0 -30 -13 -46 -29 l-29 -29
0 -325 0 -324 -59 -7 c-159 -18 -281 -140 -298 -296 l-6 -60 -327 0 -327 0
-23 -25 c-33 -35 -31 -81 4 -112 l27 -23 325 0 324 0 0 -175 0 -175 -391 0
-391 0 -29 -29 c-16 -16 -29 -37 -29 -46 0 -24 27 -72 45 -79 9 -3 192 -6 406
-6 l389 0 0 -205 0 -205 -460 0 -461 0 -24 -25 c-39 -38 -27 -102 22 -124 16
-8 165 -11 473 -11 l450 0 0 -195 0 -195 -389 0 c-214 0 -397 -3 -406 -6 -18
-7 -45 -55 -45 -79 0 -9 13 -30 29 -46 l29 -29 391 0 391 0 0 -175 0 -175
-324 0 -325 0 -27 -23 c-35 -31 -37 -77 -4 -112 l23 -25 327 0 327 0 6 -60
c17 -156 139 -278 298 -296 l59 -7 0 -324 0 -325 29 -29 c16 -16 37 -29 46
-29 24 0 72 27 79 45 3 9 6 163 6 341 l0 324 175 0 175 0 0 -391 0 -391 29
-29 c36 -36 73 -37 106 -4 l25 24 0 396 0 395 205 0 205 0 0 -460 0 -461 25
-24 c15 -16 36 -25 55 -25 19 0 40 9 55 25 l25 24 0 461 0 460 195 0 195 0 0
-386 c0 -394 2 -412 39 -441 26 -20 70 -15 96 12 l25 24 0 396 0 395 175 0
174 0 3 -331 3 -331 28 -24 c36 -31 71 -31 102 1 l25 24 0 329 0 329 58 7
c109 12 214 83 262 175 11 22 25 72 32 110 l12 71 328 0 329 0 24 25 c30 29
32 74 6 106 l-19 24 -336 3 -336 3 0 174 0 175 395 0 396 0 24 25 c33 32 33
78 0 110 l-24 25 -396 0 -395 0 0 205 0 205 463 0 464 0 21 23 c32 34 30 89
-4 116 -26 21 -36 21 -485 21 l-459 0 0 195 0 195 395 0 396 0 24 25 c33 32
33 78 0 110 l-24 25 -396 0 -395 0 0 175 0 175 320 0 c262 0 326 3 349 15 48
24 56 81 16 120 l-24 25 -329 0 -328 0 -12 71 c-7 38 -21 88 -32 110 -48 92
-153 163 -262 175 l-58 7 0 329 0 329 -25 24 c-31 32 -66 32 -102 1 l-28 -24
-3 -331 -3 -331 -174 0 -175 0 0 395 0 396 -25 24 c-39 40 -96 32 -120 -16
-12 -23 -15 -95 -15 -414 l0 -385 -205 0 -205 0 0 463 0 464 -23 21 c-26 25
-73 28 -99 8z m1297 -1135 c49 -22 73 -48 91 -98 20 -56 20 -2410 0 -2466 -18
-50 -42 -76 -91 -98 -38 -18 -97 -19 -1240 -19 -757 0 -1213 4 -1235 10 -41
11 -94 61 -109 103 -8 19 -11 409 -11 1238 0 1005 2 1215 14 1242 17 41 65 85
102 97 16 4 571 9 1234 9 1149 1 1207 0 1245 -18z"/>
<path d="M1475 3685 c-24 -23 -25 -30 -25 -143 0 -104 2 -121 20 -139 27 -29
56 -37 89 -23 42 17 51 49 51 171 0 103 -1 111 -25 134 -15 16 -36 25 -55 25
-19 0 -40 -9 -55 -25z"/>
<path d="M3555 3685 c-24 -23 -25 -31 -25 -134 0 -122 9 -154 51 -171 33 -14
62 -6 89 23 18 18 20 35 20 139 0 113 -1 120 -25 143 -15 16 -36 25 -55 25
-19 0 -40 -9 -55 -25z"/>
<path d="M1977 3380 c-91 -16 -178 -86 -221 -179 -21 -45 -21 -57 -21 -641 l0
-595 28 -57 c16 -32 48 -75 73 -97 83 -73 67 -71 722 -71 406 0 596 3 622 11
65 20 131 78 167 148 l33 63 0 596 0 597 -24 51 c-46 99 -116 153 -226 174
-63 12 -1082 12 -1153 0z m1137 -160 c22 -5 53 -23 70 -40 l31 -30 0 -590 0
-589 -30 -31 c-16 -16 -46 -35 -67 -40 -24 -7 -235 -10 -580 -8 l-543 3 -36
23 c-70 43 -69 37 -69 643 0 582 0 578 53 628 14 13 41 27 59 31 47 11 1065
11 1112 0z"/>
<path d="M1495 1738 c-40 -23 -44 -40 -45 -161 0 -112 1 -119 25 -142 15 -16
36 -25 55 -25 19 0 40 9 55 25 24 23 25 31 25 134 0 120 -9 153 -47 170 -30
14 -43 13 -68 -1z"/>
<path d="M3574 1738 c-35 -16 -44 -52 -44 -169 0 -103 1 -111 25 -134 15 -16
36 -25 55 -25 19 0 40 9 55 25 24 23 25 30 25 142 -1 123 -5 139 -47 161 -26
14 -41 14 -69 0z"/>
</g>
</svg>
